# xmcd CD database file
#
# Track frame offsets:
#	225
#	14835
#	32516
#	49647
#	64406
#	76669
#	95120
#	108465
#	121416
#	135751
#	150819
#	167352
#	180436
#	192068
#	204747
#	223070
#	233573
#	248707
#
# Disc length: 3502 seconds
#
# Revision: 4
# Processed by: cddbd v1.5.2PL0 Copyright (c) Steve Scherf et al.
# Submitted via: CDex 1.51
#
DISCID=e20dab12
DTITLE=Acker Bilk - Mr. Acker Bilk - The Album - CD1
DYEAR=2000
DGENRE=Jazz
TTITLE0=Stars And Stripes Forever
TTITLE1=My Bucket's Got A Hole In It
TTITLE2=Stomp Off, Let's Go
TTITLE3=House Rent Stomp
TTITLE4=Creole Jazz
TTITLE5=Perdito Street Blues
TTITLE6=Papa Dip
TTITLE7=Stranger On the Shore
TTITLE8=Liza
TTITLE9=Missouri Waltz
TTITLE10=Summer Set
TTITLE11=Sentimental Journey
TTITLE12=Blues
TTITLE13=Berliner Luft
TTITLE14=The White Cliffs Of Dover
TTITLE15=Home
TTITLE16=Jelly Bean Blues
TTITLE17=My Little Ragtime Baby
EXTD=YEAR: 2000
EXTT0=
EXTT1=
EXTT2=
EXTT3=
EXTT4=
EXTT5=
EXTT6=
EXTT7=
EXTT8=
EXTT9=
EXTT10=
EXTT11=
EXTT12=
EXTT13=
EXTT14=
EXTT15=
EXTT16=
EXTT17=
PLAYORDER=
